<?xml version="1.0" encoding="UTF-8"?>
<svg width="24px" height="31px" viewBox="11 545 24 31" version="1.1" xmlns="http://www.w3.org/2000/svg" xmlns:xlink="http://www.w3.org/1999/xlink">
    <g id="uniE90F" stroke="none" stroke-width="1" fill="none" fill-rule="evenodd" transform="translate(11.000000, 545.000000)">
        <path d="M10.156,20.469 C9.96866667,21.511 9.755,22.5266667 9.515,23.516 C9.275,24.5053333 8.978,25.443 8.624,26.329 C8.27,27.215 7.848,28.0276667 7.358,28.767 C6.868,29.5063333 6.25866667,30.1366667 5.53,30.658 C5.32133333,29.0953333 5.27433333,27.6213333 5.389,26.236 C5.50366667,24.8506667 5.70166667,23.512 5.983,22.22 C6.26433333,20.928 6.582,19.6623333 6.936,18.423 C7.29,17.1836667 7.592,15.939 7.842,14.689 C7.42533333,13.9803333 7.217,13.1313333 7.217,12.142 C7.217,11.1526667 7.394,10.2463333 7.748,9.423 C8.102,8.59966667 8.61766667,7.96433333 9.295,7.517 C9.97233333,7.06966667 10.7693333,7.03333333 11.686,7.408 C12.8113333,7.84533333 13.2696667,8.658 13.061,9.846 C12.8523333,11.034 12.545,12.284 12.139,13.596 C11.733,14.908 11.4933333,16.1216667 11.42,17.237 C11.3466667,18.3523333 12.0186667,19.045 13.436,19.315 C14.8946667,19.607 16.124,19.2266667 17.124,18.174 C18.124,17.1213333 18.8426667,15.8086667 19.28,14.236 C19.7173333,12.6633333 19.8476667,11.0383333 19.671,9.361 C19.4943333,7.68366667 18.9473333,6.38666667 18.03,5.47 C16.7173333,4.13666667 15.1913333,3.418 13.452,3.314 C11.7126667,3.21 10.093,3.559 8.593,4.361 C7.093,5.163 5.87433333,6.32433333 4.937,7.845 C3.99966667,9.36566667 3.687,11.074 3.999,12.97 C4.145,13.9073333 4.494,14.652 5.046,15.204 C5.598,15.756 5.499,16.678 4.749,17.97 C3.08233333,17.5946667 1.947,16.7873333 1.343,15.548 C0.739,14.3086667 0.468,12.814 0.53,11.064 C0.592666667,9.60533333 0.920666667,8.272 1.514,7.064 C2.10733333,5.856 2.87833333,4.79866667 3.827,3.892 C4.77566667,2.98533333 5.84866667,2.256 7.046,1.704 C8.24333333,1.152 9.46733333,0.803 10.718,0.657 C12.3013333,0.490333333 13.8376667,0.547666667 15.327,0.829 C16.8163333,1.11033333 18.155,1.605 19.343,2.313 C20.531,3.021 21.5206667,3.93233333 22.312,5.047 C23.1033333,6.16166667 23.6033333,7.45866667 23.812,8.938 C24.0413333,10.6253333 23.9893333,12.2973333 23.656,13.954 C23.3226667,15.6106667 22.734,17.09 21.89,18.392 C21.046,19.694 19.973,20.72 18.671,21.47 C17.369,22.22 15.8743333,22.5326667 14.187,22.408 C13.2703333,22.3453333 12.5516667,22.116 12.031,21.72 C11.5103333,21.324 10.8853333,20.9073333 10.156,20.47 L10.156,20.47 L10.156,20.469 Z" id="Shape" fill="#FFFFFF"></path>
    </g>
</svg>